<svg width="38" height="30" viewBox="0 0 38 30" fill="none" xmlns="http://www.w3.org/2000/svg">
<g filter="url(#filter0_di_462_124)">
<path d="M33 6.90625C33 3.64938 25.832 1 17 1C8.168 1 1 3.64938 1 6.90625C1 9.96062 7.32 12.4919 15.4 12.7787V18.25H13.4873C12.1753 18.25 11.0073 19.0938 10.5113 20.3763L8.92727 22.8569C8.55927 23.8862 9.26327 25 10.3193 25C10.9273 25 11.4713 24.6119 11.6953 24.0212L13.2473 21.625H20.7527L22.3047 24.0212C22.5287 24.6119 23.0727 25 23.6807 25C24.7367 25 25.4567 23.8862 25.0567 22.8569L23.4727 20.3763C22.9927 19.0938 21.8087 18.25 20.5127 18.25H18.6V12.7787C26.68 12.4919 33 9.96062 33 6.90625Z" fill="url(#paint0_radial_462_124)"/>
</g>
<defs>
<filter id="filter0_di_462_124" x="0" y="0" width="38" height="30" filterUnits="userSpaceOnUse" color-interpolation-filters="sRGB">
<feFlood flood-opacity="0" result="BackgroundImageFix"/>
<feColorMatrix in="SourceAlpha" type="matrix" values="0 0 0 0 0 0 0 0 0 0 0 0 0 0 0 0 0 0 127 0" result="hardAlpha"/>
<feOffset dx="2" dy="2"/>
<feGaussianBlur stdDeviation="1.5"/>
<feComposite in2="hardAlpha" operator="out"/>
<feColorMatrix type="matrix" values="0 0 0 0 0.25098 0 0 0 0 0.278431 0 0 0 0 0.411765 0 0 0 0.24 0"/>
<feBlend mode="multiply" in2="BackgroundImageFix" result="effect1_dropShadow_462_124"/>
<feBlend mode="normal" in="SourceGraphic" in2="effect1_dropShadow_462_124" result="shape"/>
<feColorMatrix in="SourceAlpha" type="matrix" values="0 0 0 0 0 0 0 0 0 0 0 0 0 0 0 0 0 0 127 0" result="hardAlpha"/>
<feOffset dx="1" dy="1"/>
<feGaussianBlur stdDeviation="0.5"/>
<feComposite in2="hardAlpha" operator="arithmetic" k2="-1" k3="1"/>
<feColorMatrix type="matrix" values="0 0 0 0 1 0 0 0 0 1 0 0 0 0 1 0 0 0 1 0"/>
<feBlend mode="normal" in2="shape" result="effect2_innerShadow_462_124"/>
</filter>
<radialGradient id="paint0_radial_462_124" cx="0" cy="0" r="1" gradientUnits="userSpaceOnUse" gradientTransform="translate(1 1) rotate(38.5505) scale(40.9176 44.5629)">
<stop stop-color="#D5E9FF"/>
<stop offset="1" stop-color="#7C95B0"/>
</radialGradient>
</defs>
</svg>
