<svg width="112" height="112" viewBox="0 0 112 112" fill="none" xmlns="http://www.w3.org/2000/svg">
<g filter="url(#filter0_iii_461_219)">
<path d="M100.028 68.1035C92.5749 40.7747 71.2253 19.4251 43.8965 11.9718L40.4197 11.0236C20.0633 5.4718 0 20.7961 0 41.896V64C0 90.5097 21.4903 112 48 112H70.104C91.2039 112 106.528 91.9367 100.976 71.5802L100.028 68.1035Z" fill="url(#paint0_radial_461_219)"/>
</g>
<g filter="url(#filter1_di_461_219)">
<path d="M31.845 48.8669C36.0952 48.2884 40.3786 47.9988 44.6667 48C49.0137 48 53.293 48.2945 57.4883 48.8669C60.398 49.2636 62.575 51.4985 63.17 54.2536C62.7252 54.1692 62.2755 54.1145 61.8237 54.0898C58.1662 53.8864 54.5005 53.8864 50.843 54.0898C45.201 54.4033 41.1667 59.2271 41.1667 64.6209V69.9412C41.1667 73.2972 42.73 76.437 45.2733 78.4013L38.32 85.479C38.0753 85.7279 37.7636 85.8973 37.4243 85.9659C37.0851 86.0345 36.7334 85.9992 36.4138 85.8645C36.0943 85.7298 35.8211 85.5017 35.6288 85.2091C35.4364 84.9164 35.3336 84.5723 35.3333 84.2202V76.0428C34.1643 75.9288 33 75.791 31.845 75.6343C28.4103 75.1664 26 72.1357 26 68.7109V55.7903C26 52.3678 28.4103 49.3348 31.845 48.8669Z" fill="url(#paint1_radial_461_219)"/>
<path d="M56.3333 57.5004C54.5553 57.5004 52.7867 57.5479 51.0343 57.6476C47.3663 57.8519 44.6667 60.9965 44.6667 64.6209V69.9412C44.6667 73.5489 47.343 76.6841 50.99 76.9121C51.4893 76.9429 51.9887 76.9691 52.488 76.9928C52.9547 77.0142 53.3863 77.2066 53.6967 77.5248L59.18 83.1063C59.4249 83.3553 59.7368 83.5247 60.0763 83.5932C60.4157 83.6618 60.7676 83.6263 61.0872 83.4913C61.4069 83.3563 61.6801 83.1279 61.8722 82.8349C62.0644 82.5418 62.1668 82.1974 62.1667 81.8451V76.9287C65.557 76.4655 68 73.4539 68 70.0053V64.6209C68 60.9965 65.3003 57.8519 61.6323 57.6476C59.8676 57.5495 58.1007 57.5004 56.3333 57.5004Z" fill="url(#paint2_radial_461_219)"/>
</g>
<defs>
<filter id="filter0_iii_461_219" x="-4" y="5.87793" width="110.122" height="110.122" filterUnits="userSpaceOnUse" color-interpolation-filters="sRGB">
<feFlood flood-opacity="0" result="BackgroundImageFix"/>
<feBlend mode="normal" in="SourceGraphic" in2="BackgroundImageFix" result="shape"/>
<feColorMatrix in="SourceAlpha" type="matrix" values="0 0 0 0 0 0 0 0 0 0 0 0 0 0 0 0 0 0 127 0" result="hardAlpha"/>
<feOffset dx="4" dy="4"/>
<feGaussianBlur stdDeviation="12"/>
<feComposite in2="hardAlpha" operator="arithmetic" k2="-1" k3="1"/>
<feColorMatrix type="matrix" values="0 0 0 0 0.447059 0 0 0 0 0.533333 0 0 0 0 0.670588 0 0 0 0.56 0"/>
<feBlend mode="screen" in2="shape" result="effect1_innerShadow_461_219"/>
<feColorMatrix in="SourceAlpha" type="matrix" values="0 0 0 0 0 0 0 0 0 0 0 0 0 0 0 0 0 0 127 0" result="hardAlpha"/>
<feOffset dx="-4" dy="-4"/>
<feGaussianBlur stdDeviation="8"/>
<feComposite in2="hardAlpha" operator="arithmetic" k2="-1" k3="1"/>
<feColorMatrix type="matrix" values="0 0 0 0 0.171111 0 0 0 0 0.201823 0 0 0 0 0.320833 0 0 0 0.7 0"/>
<feBlend mode="normal" in2="effect1_innerShadow_461_219" result="effect2_innerShadow_461_219"/>
<feColorMatrix in="SourceAlpha" type="matrix" values="0 0 0 0 0 0 0 0 0 0 0 0 0 0 0 0 0 0 127 0" result="hardAlpha"/>
<feOffset dx="2" dy="2"/>
<feGaussianBlur stdDeviation="1"/>
<feComposite in2="hardAlpha" operator="arithmetic" k2="-1" k3="1"/>
<feColorMatrix type="matrix" values="0 0 0 0 0.478403 0 0 0 0 0.564457 0 0 0 0 0.691667 0 0 0 0.16 0"/>
<feBlend mode="color-dodge" in2="effect2_innerShadow_461_219" result="effect3_innerShadow_461_219"/>
</filter>
<filter id="filter1_di_461_219" x="25" y="47" width="48" height="44" filterUnits="userSpaceOnUse" color-interpolation-filters="sRGB">
<feFlood flood-opacity="0" result="BackgroundImageFix"/>
<feColorMatrix in="SourceAlpha" type="matrix" values="0 0 0 0 0 0 0 0 0 0 0 0 0 0 0 0 0 0 127 0" result="hardAlpha"/>
<feOffset dx="2" dy="2"/>
<feGaussianBlur stdDeviation="1.5"/>
<feComposite in2="hardAlpha" operator="out"/>
<feColorMatrix type="matrix" values="0 0 0 0 0.25098 0 0 0 0 0.278431 0 0 0 0 0.411765 0 0 0 0.24 0"/>
<feBlend mode="multiply" in2="BackgroundImageFix" result="effect1_dropShadow_461_219"/>
<feBlend mode="normal" in="SourceGraphic" in2="effect1_dropShadow_461_219" result="shape"/>
<feColorMatrix in="SourceAlpha" type="matrix" values="0 0 0 0 0 0 0 0 0 0 0 0 0 0 0 0 0 0 127 0" result="hardAlpha"/>
<feOffset dx="1" dy="1"/>
<feGaussianBlur stdDeviation="0.5"/>
<feComposite in2="hardAlpha" operator="arithmetic" k2="-1" k3="1"/>
<feColorMatrix type="matrix" values="0 0 0 0 1 0 0 0 0 1 0 0 0 0 1 0 0 0 1 0"/>
<feBlend mode="normal" in2="shape" result="effect2_innerShadow_461_219"/>
</filter>
<radialGradient id="paint0_radial_461_219" cx="0" cy="0" r="1" gradientUnits="userSpaceOnUse" gradientTransform="translate(7.76563e-05 16) rotate(45) scale(135.764 135.764)">
<stop stop-color="#57688B"/>
<stop offset="1" stop-color="#3D4768"/>
</radialGradient>
<radialGradient id="paint1_radial_461_219" cx="0" cy="0" r="1" gradientUnits="userSpaceOnUse" gradientTransform="translate(26 48) rotate(42.1376) scale(56.6392 62.9665)">
<stop stop-color="#D5E9FF"/>
<stop offset="1" stop-color="#7C95B0"/>
</radialGradient>
<radialGradient id="paint2_radial_461_219" cx="0" cy="0" r="1" gradientUnits="userSpaceOnUse" gradientTransform="translate(26 48) rotate(42.1376) scale(56.6392 62.9665)">
<stop stop-color="#D5E9FF"/>
<stop offset="1" stop-color="#7C95B0"/>
</radialGradient>
</defs>
</svg>
