<svg width="112" height="72" viewBox="0 0 112 72" fill="none" xmlns="http://www.w3.org/2000/svg">
<g filter="url(#filter0_iii_666_11)">
<path d="M0 24C0 10.7452 10.7452 0 24 0H88C101.255 0 112 10.7452 112 24V48C112 61.2548 101.255 72 88 72H24C10.7452 72 0 61.2548 0 48V24Z" fill="url(#paint0_radial_666_11)"/>
</g>
<g opacity="0.72" filter="url(#filter1_di_666_11)">
<path d="M41.6339 30.576C43.0739 30.576 44.2632 30.9547 45.2019 31.712C46.1512 32.4693 46.7645 33.4933 47.0419 34.784H44.1459C43.9325 34.2613 43.6019 33.8507 43.1539 33.552C42.7165 33.2533 42.1939 33.104 41.5859 33.104C40.7859 33.104 40.1405 33.3973 39.6499 33.984C39.1592 34.5707 38.9139 35.3547 38.9139 36.336C38.9139 37.3173 39.1592 38.1013 39.6499 38.688C40.1405 39.264 40.7859 39.552 41.5859 39.552C42.1939 39.552 42.7165 39.4027 43.1539 39.104C43.6019 38.8053 43.9325 38.4 44.1459 37.888H47.0419C46.7645 39.168 46.1512 40.192 45.2019 40.96C44.2632 41.7173 43.0739 42.096 41.6339 42.096C40.5352 42.096 39.5699 41.856 38.7379 41.376C37.9059 40.8853 37.2605 40.2027 36.8019 39.328C36.3539 38.4533 36.1299 37.456 36.1299 36.336C36.1299 35.216 36.3539 34.2187 36.8019 33.344C37.2605 32.4693 37.9059 31.792 38.7379 31.312C39.5699 30.8213 40.5352 30.576 41.6339 30.576ZM56.3832 39.936H52.1432L51.4392 42H48.5592L52.7032 30.768H55.8552L59.9992 42H57.0872L56.3832 39.936ZM55.6792 37.856L54.2712 33.696L52.8472 37.856H55.6792ZM64.5987 39.904H68.2467V42H61.8627V30.688H64.5987V39.904ZM73.0394 39.904H76.6874V42H70.3034V30.688H73.0394V39.904Z" fill="#D5E9FF"/>
</g>
<defs>
<filter id="filter0_iii_666_11" x="-4" y="-4" width="120" height="80" filterUnits="userSpaceOnUse" color-interpolation-filters="sRGB">
<feFlood flood-opacity="0" result="BackgroundImageFix"/>
<feBlend mode="normal" in="SourceGraphic" in2="BackgroundImageFix" result="shape"/>
<feColorMatrix in="SourceAlpha" type="matrix" values="0 0 0 0 0 0 0 0 0 0 0 0 0 0 0 0 0 0 127 0" result="hardAlpha"/>
<feOffset dx="4" dy="4"/>
<feGaussianBlur stdDeviation="12"/>
<feComposite in2="hardAlpha" operator="arithmetic" k2="-1" k3="1"/>
<feColorMatrix type="matrix" values="0 0 0 0 0.536927 0 0 0 0 0.600782 0 0 0 0 0.704167 0 0 0 0.24 0"/>
<feBlend mode="screen" in2="shape" result="effect1_innerShadow_666_11"/>
<feColorMatrix in="SourceAlpha" type="matrix" values="0 0 0 0 0 0 0 0 0 0 0 0 0 0 0 0 0 0 127 0" result="hardAlpha"/>
<feOffset dx="-4" dy="-4"/>
<feGaussianBlur stdDeviation="8"/>
<feComposite in2="hardAlpha" operator="arithmetic" k2="-1" k3="1"/>
<feColorMatrix type="matrix" values="0 0 0 0 0.171111 0 0 0 0 0.201823 0 0 0 0 0.320833 0 0 0 0.88 0"/>
<feBlend mode="normal" in2="effect1_innerShadow_666_11" result="effect2_innerShadow_666_11"/>
<feColorMatrix in="SourceAlpha" type="matrix" values="0 0 0 0 0 0 0 0 0 0 0 0 0 0 0 0 0 0 127 0" result="hardAlpha"/>
<feOffset dx="2" dy="2"/>
<feGaussianBlur stdDeviation="1"/>
<feComposite in2="hardAlpha" operator="arithmetic" k2="-1" k3="1"/>
<feColorMatrix type="matrix" values="0 0 0 0 0.40625 0 0 0 0 0.450994 0 0 0 0 0.625 0 0 0 0.16 0"/>
<feBlend mode="color-dodge" in2="effect2_innerShadow_666_11" result="effect3_innerShadow_666_11"/>
</filter>
<filter id="filter1_di_666_11" x="35.1299" y="29.5762" width="46.5575" height="17.52" filterUnits="userSpaceOnUse" color-interpolation-filters="sRGB">
<feFlood flood-opacity="0" result="BackgroundImageFix"/>
<feColorMatrix in="SourceAlpha" type="matrix" values="0 0 0 0 0 0 0 0 0 0 0 0 0 0 0 0 0 0 127 0" result="hardAlpha"/>
<feOffset dx="2" dy="2"/>
<feGaussianBlur stdDeviation="1.5"/>
<feComposite in2="hardAlpha" operator="out"/>
<feColorMatrix type="matrix" values="0 0 0 0 0.25098 0 0 0 0 0.278431 0 0 0 0 0.411765 0 0 0 0.24 0"/>
<feBlend mode="multiply" in2="BackgroundImageFix" result="effect1_dropShadow_666_11"/>
<feBlend mode="normal" in="SourceGraphic" in2="effect1_dropShadow_666_11" result="shape"/>
<feColorMatrix in="SourceAlpha" type="matrix" values="0 0 0 0 0 0 0 0 0 0 0 0 0 0 0 0 0 0 127 0" result="hardAlpha"/>
<feOffset dx="1" dy="1"/>
<feGaussianBlur stdDeviation="0.5"/>
<feComposite in2="hardAlpha" operator="arithmetic" k2="-1" k3="1"/>
<feColorMatrix type="matrix" values="0 0 0 0 1 0 0 0 0 1 0 0 0 0 1 0 0 0 1 0"/>
<feBlend mode="normal" in2="shape" result="effect2_innerShadow_666_11"/>
</filter>
<radialGradient id="paint0_radial_666_11" cx="0" cy="0" r="1" gradientUnits="userSpaceOnUse" gradientTransform="rotate(32.7352) scale(133.147 168.236)">
<stop stop-color="#535F86"/>
<stop offset="1" stop-color="#40496C"/>
</radialGradient>
</defs>
</svg>
