<svg width="112" height="72" viewBox="0 0 112 72" fill="none" xmlns="http://www.w3.org/2000/svg">
<g opacity="0.56" filter="url(#filter0_iii_847_437)">
<path d="M0 24C0 10.7452 10.7452 0 24 0H88C101.255 0 112 10.7452 112 24V48C112 61.2548 101.255 72 88 72H24C10.7452 72 0 61.2548 0 48V24Z" fill="url(#paint0_radial_847_437)"/>
</g>
<g opacity="0.72" filter="url(#filter1_di_847_437)">
<path d="M32.3964 30.576C33.8364 30.576 35.0257 30.9547 35.9644 31.712C36.9137 32.4693 37.527 33.4933 37.8044 34.784H34.9084C34.695 34.2613 34.3644 33.8507 33.9164 33.552C33.479 33.2533 32.9564 33.104 32.3484 33.104C31.5484 33.104 30.903 33.3973 30.4124 33.984C29.9217 34.5707 29.6764 35.3547 29.6764 36.336C29.6764 37.3173 29.9217 38.1013 30.4124 38.688C30.903 39.264 31.5484 39.552 32.3484 39.552C32.9564 39.552 33.479 39.4027 33.9164 39.104C34.3644 38.8053 34.695 38.4 34.9084 37.888H37.8044C37.527 39.168 36.9137 40.192 35.9644 40.96C35.0257 41.7173 33.8364 42.096 32.3964 42.096C31.2977 42.096 30.3324 41.856 29.5004 41.376C28.6684 40.8853 28.023 40.2027 27.5644 39.328C27.1164 38.4533 26.8924 37.456 26.8924 36.336C26.8924 35.216 27.1164 34.2187 27.5644 33.344C28.023 32.4693 28.6684 31.792 29.5004 31.312C30.3324 30.8213 31.2977 30.576 32.3964 30.576ZM49.9137 30.688V42H47.1617V37.28H42.8737V42H40.1377V30.688H42.8737V35.072H47.1617V30.688H49.9137ZM55.33 32.864V35.232H59.154V37.296H55.33V39.808H59.634V42H52.594V30.688H59.634V32.864H55.33ZM67.1558 30.576C68.5958 30.576 69.7851 30.9547 70.7238 31.712C71.6731 32.4693 72.2864 33.4933 72.5638 34.784H69.6678C69.4544 34.2613 69.1238 33.8507 68.6758 33.552C68.2384 33.2533 67.7158 33.104 67.1078 33.104C66.3078 33.104 65.6624 33.3973 65.1718 33.984C64.6811 34.5707 64.4358 35.3547 64.4358 36.336C64.4358 37.3173 64.6811 38.1013 65.1718 38.688C65.6624 39.264 66.3078 39.552 67.1078 39.552C67.7158 39.552 68.2384 39.4027 68.6758 39.104C69.1238 38.8053 69.4544 38.4 69.6678 37.888H72.5638C72.2864 39.168 71.6731 40.192 70.7238 40.96C69.7851 41.7173 68.5958 42.096 67.1558 42.096C66.0571 42.096 65.0918 41.856 64.2598 41.376C63.4278 40.8853 62.7824 40.2027 62.3238 39.328C61.8758 38.4533 61.6518 37.456 61.6518 36.336C61.6518 35.216 61.8758 34.2187 62.3238 33.344C62.7824 32.4693 63.4278 31.792 64.2598 31.312C65.0918 30.8213 66.0571 30.576 67.1558 30.576ZM80.2251 36.224L84.7851 42H81.4731L77.6331 36.928V42H74.8971V30.688H77.6331V35.664L81.5051 30.688H84.7851L80.2251 36.224Z" fill="#6C7BA7"/>
</g>
<defs>
<filter id="filter0_iii_847_437" x="-4" y="-4" width="120" height="80" filterUnits="userSpaceOnUse" color-interpolation-filters="sRGB">
<feFlood flood-opacity="0" result="BackgroundImageFix"/>
<feBlend mode="normal" in="SourceGraphic" in2="BackgroundImageFix" result="shape"/>
<feColorMatrix in="SourceAlpha" type="matrix" values="0 0 0 0 0 0 0 0 0 0 0 0 0 0 0 0 0 0 127 0" result="hardAlpha"/>
<feOffset dx="4" dy="4"/>
<feGaussianBlur stdDeviation="12"/>
<feComposite in2="hardAlpha" operator="arithmetic" k2="-1" k3="1"/>
<feColorMatrix type="matrix" values="0 0 0 0 0.536927 0 0 0 0 0.600782 0 0 0 0 0.704167 0 0 0 0.24 0"/>
<feBlend mode="screen" in2="shape" result="effect1_innerShadow_847_437"/>
<feColorMatrix in="SourceAlpha" type="matrix" values="0 0 0 0 0 0 0 0 0 0 0 0 0 0 0 0 0 0 127 0" result="hardAlpha"/>
<feOffset dx="-4" dy="-4"/>
<feGaussianBlur stdDeviation="8"/>
<feComposite in2="hardAlpha" operator="arithmetic" k2="-1" k3="1"/>
<feColorMatrix type="matrix" values="0 0 0 0 0.171111 0 0 0 0 0.201823 0 0 0 0 0.320833 0 0 0 0.88 0"/>
<feBlend mode="normal" in2="effect1_innerShadow_847_437" result="effect2_innerShadow_847_437"/>
<feColorMatrix in="SourceAlpha" type="matrix" values="0 0 0 0 0 0 0 0 0 0 0 0 0 0 0 0 0 0 127 0" result="hardAlpha"/>
<feOffset dx="2" dy="2"/>
<feGaussianBlur stdDeviation="1"/>
<feComposite in2="hardAlpha" operator="arithmetic" k2="-1" k3="1"/>
<feColorMatrix type="matrix" values="0 0 0 0 0.40625 0 0 0 0 0.450994 0 0 0 0 0.625 0 0 0 0.16 0"/>
<feBlend mode="color-dodge" in2="effect2_innerShadow_847_437" result="effect3_innerShadow_847_437"/>
</filter>
<filter id="filter1_di_847_437" x="25.8924" y="29.5762" width="63.8927" height="17.5195" filterUnits="userSpaceOnUse" color-interpolation-filters="sRGB">
<feFlood flood-opacity="0" result="BackgroundImageFix"/>
<feColorMatrix in="SourceAlpha" type="matrix" values="0 0 0 0 0 0 0 0 0 0 0 0 0 0 0 0 0 0 127 0" result="hardAlpha"/>
<feOffset dx="2" dy="2"/>
<feGaussianBlur stdDeviation="1.5"/>
<feComposite in2="hardAlpha" operator="out"/>
<feColorMatrix type="matrix" values="0 0 0 0 0.25098 0 0 0 0 0.278431 0 0 0 0 0.411765 0 0 0 0.24 0"/>
<feBlend mode="multiply" in2="BackgroundImageFix" result="effect1_dropShadow_847_437"/>
<feBlend mode="normal" in="SourceGraphic" in2="effect1_dropShadow_847_437" result="shape"/>
<feColorMatrix in="SourceAlpha" type="matrix" values="0 0 0 0 0 0 0 0 0 0 0 0 0 0 0 0 0 0 127 0" result="hardAlpha"/>
<feOffset dx="1" dy="1"/>
<feGaussianBlur stdDeviation="0.5"/>
<feComposite in2="hardAlpha" operator="arithmetic" k2="-1" k3="1"/>
<feColorMatrix type="matrix" values="0 0 0 0 1 0 0 0 0 1 0 0 0 0 1 0 0 0 0.4 0"/>
<feBlend mode="normal" in2="shape" result="effect2_innerShadow_847_437"/>
</filter>
<radialGradient id="paint0_radial_847_437" cx="0" cy="0" r="1" gradientUnits="userSpaceOnUse" gradientTransform="rotate(32.7352) scale(133.147 168.236)">
<stop stop-color="#535F86"/>
<stop offset="1" stop-color="#40496C"/>
</radialGradient>
</defs>
</svg>
